<svg width="153" height="90" viewBox="0 0 153 90" fill="none" xmlns="http://www.w3.org/2000/svg">
<path d="M0 30.6163C0 29.6657 0.770638 28.895 1.72127 28.895H9.27873C10.2294 28.895 11 29.6657 11 30.6163V89.1394C11 89.6147 10.6147 90 10.1394 90H0.860634C0.385319 90 0 89.6147 0 89.1394V30.6163Z" fill="white"/>
<path d="M20.2856 41.7213C20.2856 40.7706 21.0563 40 22.0069 40H29.5644C30.515 40 31.2856 40.7706 31.2856 41.7213V89.1394C31.2856 89.6147 30.9003 90 30.425 90H21.1463C20.671 90 20.2856 89.6147 20.2856 89.1394V41.7213Z" fill="#CC0505"/>
<path d="M40.5713 49.1199C40.5713 48.1693 41.3419 47.3986 42.2926 47.3986H49.85C50.8007 47.3986 51.5713 48.1693 51.5713 49.1199V89.1394C51.5713 89.6147 51.186 90 50.7107 90H41.4319C40.9566 90 40.5713 89.6147 40.5713 89.1394V49.1199Z" fill="white"/>
<path d="M60.8569 73.648C60.8569 72.6973 61.6276 71.9267 62.5782 71.9267H70.1357C71.0863 71.9267 71.8569 72.6973 71.8569 73.648V89.1394C71.8569 89.6147 71.4716 90 70.9963 90H61.7176C61.2423 90 60.8569 89.6147 60.8569 89.1394V73.648Z" fill="#CC0505"/>
<path d="M81.1431 21.7213C81.1431 20.7706 81.9137 20 82.8643 20H90.4218C91.3724 20 92.1431 20.7706 92.1431 21.7213V89.1394C92.1431 89.6147 91.7577 90 91.2824 90H82.0037C81.5284 90 81.1431 89.6147 81.1431 89.1394V21.7213Z" fill="white"/>
<path d="M101.429 55.5747C101.429 54.624 102.199 53.8534 103.15 53.8534H110.707C111.658 53.8534 112.429 54.624 112.429 55.5747V89.1394C112.429 89.6147 112.043 90 111.568 90H102.289C101.814 90 101.429 89.6147 101.429 89.1394V55.5747Z" fill="#CC0505"/>
<path d="M121.714 31.7213C121.714 30.7706 122.485 30 123.436 30H130.993C131.944 30 132.714 30.7706 132.714 31.7213V89.1394C132.714 89.6147 132.329 90 131.854 90H122.575C122.1 90 121.714 89.6147 121.714 89.1394V31.7213Z" fill="white"/>
<path d="M142 21.7213C142 20.7706 142.771 20 143.721 20H151.279C152.229 20 153 20.7706 153 21.7213V89.1394C153 89.6147 152.615 90 152.139 90H142.861C142.385 90 142 89.6147 142 89.1394V21.7213Z" fill="#CC0505"/>
</svg>
