<svg width="26" height="26" viewBox="0 0 26 26" fill="none" xmlns="http://www.w3.org/2000/svg">
<g clip-path="url(#clip0_563_114)">
<path d="M12.6513 19.1116C9.68839 19.1116 7.28995 16.8182 7.06925 13.9119L2.9716 10.7451C2.43292 11.4209 1.93722 12.1354 1.53722 12.9166C1.44786 13.0934 1.4013 13.2887 1.4013 13.4867C1.4013 13.6848 1.44786 13.8801 1.53722 14.0569C3.65558 18.1901 7.84933 20.9866 12.6513 20.9866C13.7025 20.9866 14.7165 20.8303 15.6939 20.578L13.6669 19.0096C13.3322 19.0743 12.9922 19.1084 12.6513 19.1116ZM24.9099 21.3811L20.5915 18.0436C21.9033 16.9381 22.9822 15.5828 23.7653 14.0565C23.8547 13.8797 23.9013 13.6844 23.9013 13.4864C23.9013 13.2883 23.8547 13.093 23.7653 12.9162C21.647 8.78304 17.4532 5.98655 12.6513 5.98655C10.6401 5.98899 8.66168 6.49529 6.89659 7.45921L1.92706 3.61819C1.86226 3.56777 1.78816 3.5306 1.70898 3.50883C1.62981 3.48705 1.54712 3.48109 1.46565 3.49129C1.38417 3.50148 1.3055 3.52763 1.23413 3.56824C1.16277 3.60885 1.1001 3.66312 1.04972 3.72796L0.282923 4.71507C0.181204 4.84592 0.135624 5.01182 0.156209 5.17627C0.176793 5.34073 0.261856 5.49028 0.392689 5.59202L23.3755 23.3549C23.4403 23.4053 23.5144 23.4425 23.5936 23.4643C23.6728 23.4861 23.7554 23.492 23.8369 23.4818C23.9184 23.4716 23.9971 23.4455 24.0684 23.4049C24.1398 23.3643 24.2025 23.31 24.2528 23.2451L25.02 22.258C25.1217 22.1271 25.1672 21.9612 25.1466 21.7967C25.1259 21.6323 25.0408 21.4828 24.9099 21.3811ZM17.7333 15.8342L16.1982 14.6475C16.3274 14.2738 16.396 13.8819 16.4013 13.4866C16.4089 12.9077 16.2807 12.3352 16.0269 11.815C15.7731 11.2947 15.4009 10.8412 14.94 10.4909C14.4792 10.1406 13.9426 9.90332 13.3734 9.79801C12.8042 9.69271 12.2183 9.72236 11.6626 9.8846C11.8982 10.2038 12.0256 10.5899 12.0263 10.9866C12.0205 11.1186 12.0003 11.2495 11.9661 11.3772L9.09074 9.15491C10.0896 8.32023 11.3496 7.86251 12.6513 7.86155C13.3901 7.86114 14.1217 8.00636 14.8044 8.28889C15.487 8.57143 16.1073 8.98575 16.6297 9.50816C17.1521 10.0306 17.5664 10.6508 17.8489 11.3335C18.1315 12.0161 18.2767 12.7478 18.2763 13.4866C18.2763 14.3315 18.0696 15.119 17.7333 15.8346V15.8342Z" fill="black"/>
</g>
<defs>
<clipPath id="clip0_563_114">
<rect width="25" height="25" fill="white" transform="translate(0.151367 0.986572)"/>
</clipPath>
</defs>
</svg>
