<svg width="48" height="48" viewBox="0 0 48 48" fill="none" xmlns="http://www.w3.org/2000/svg">
<path d="M12.8 18.4H13.2C14.74 18.4 16 19.66 16 21.2V35.2C16 36.74 14.74 38 13.2 38H12.8C11.26 38 10 36.74 10 35.2V21.2C10 19.66 11.26 18.4 12.8 18.4ZM24 10C25.54 10 26.8 11.26 26.8 12.8V35.2C26.8 36.74 25.54 38 24 38C22.46 38 21.2 36.74 21.2 35.2V12.8C21.2 11.26 22.46 10 24 10ZM35.2 26C36.74 26 38 27.26 38 28.8V35.2C38 36.74 36.74 38 35.2 38C33.66 38 32.4 36.74 32.4 35.2V28.8C32.4 27.26 33.66 26 35.2 26Z" fill="white"/>
</svg>
