<svg width="26" height="17" viewBox="0 0 26 17" fill="none" xmlns="http://www.w3.org/2000/svg">
<path d="M25.0003 7.85285C22.6466 3.2604 17.9868 0.153198 12.6513 0.153198C7.31584 0.153198 2.65482 3.26257 0.302385 7.85328C0.203098 8.04969 0.151367 8.26668 0.151367 8.48675C0.151367 8.70682 0.203098 8.92381 0.302385 9.12021C2.65612 13.7127 7.31584 16.8199 12.6513 16.8199C17.9868 16.8199 22.6479 13.7105 25.0003 9.11978C25.0996 8.92338 25.1513 8.70639 25.1513 8.48631C25.1513 8.26624 25.0996 8.04925 25.0003 7.85285ZM12.6513 14.7365C11.4152 14.7365 10.2068 14.37 9.17903 13.6832C8.15122 12.9965 7.35014 12.0203 6.8771 10.8783C6.40405 9.73626 6.28028 8.4796 6.52144 7.26722C6.76259 6.05484 7.35785 4.94119 8.23193 4.06711C9.106 3.19304 10.2196 2.59778 11.432 2.35662C12.6444 2.11547 13.9011 2.23924 15.0431 2.71228C16.1852 3.18533 17.1613 3.98641 17.848 5.01422C18.5348 6.04202 18.9013 7.2504 18.9013 8.48653C18.9017 9.30741 18.7404 10.1203 18.4264 10.8788C18.1125 11.6372 17.6521 12.3264 17.0717 12.9068C16.4912 13.4873 15.8021 13.9476 15.0436 14.2616C14.2851 14.5755 13.4722 14.7369 12.6513 14.7365ZM12.6513 4.31986C12.2794 4.32506 11.9099 4.38039 11.5528 4.48436C11.8472 4.88439 11.9884 5.37667 11.951 5.87192C11.9135 6.36717 11.6998 6.8326 11.3486 7.1838C10.9974 7.53499 10.532 7.7487 10.0367 7.78617C9.54148 7.82363 9.0492 7.68237 8.64917 7.38801C8.42138 8.22724 8.4625 9.11677 8.76674 9.93141C9.07099 10.746 9.62303 11.4448 10.3452 11.9292C11.0673 12.4137 11.9232 12.6595 12.7924 12.632C13.6615 12.6046 14.5002 12.3052 15.1904 11.7762C15.8805 11.2471 16.3873 10.5149 16.6395 9.68271C16.8918 8.85049 16.8767 7.96013 16.5964 7.13695C16.316 6.31377 15.7846 5.59922 15.077 5.09387C14.3693 4.58852 13.5209 4.31782 12.6513 4.31986Z" fill="black"/>
</svg>
