<svg width="48" height="48" viewBox="0 0 48 48" fill="none" xmlns="http://www.w3.org/2000/svg">
<path d="M8 26H20C21.1 26 22 25.1 22 24V8C22 6.9 21.1 6 20 6H8C6.9 6 6 6.9 6 8V24C6 25.1 6.9 26 8 26ZM8 42H20C21.1 42 22 41.1 22 40V32C22 30.9 21.1 30 20 30H8C6.9 30 6 30.9 6 32V40C6 41.1 6.9 42 8 42ZM28 42H40C41.1 42 42 41.1 42 40V24C42 22.9 41.1 22 40 22H28C26.9 22 26 22.9 26 24V40C26 41.1 26.9 42 28 42ZM26 8V16C26 17.1 26.9 18 28 18H40C41.1 18 42 17.1 42 16V8C42 6.9 41.1 6 40 6H28C26.9 6 26 6.9 26 8Z" fill="white"/>
</svg>
