<svg width="48" height="48" viewBox="0 0 48 48" fill="none" xmlns="http://www.w3.org/2000/svg">
<path d="M31.0003 28H29.4203L28.8603 27.46C31.2603 24.66 32.5003 20.84 31.8203 16.78C30.8803 11.22 26.2403 6.78003 20.6403 6.10003C12.1803 5.06003 5.06027 12.18 6.10027 20.64C6.78027 26.24 11.2203 30.88 16.7803 31.82C20.8403 32.5 24.6603 31.26 27.4603 28.86L28.0003 29.42V31L36.5003 39.5C37.3203 40.32 38.6603 40.32 39.4803 39.5C40.3003 38.68 40.3003 37.34 39.4803 36.52L31.0003 28ZM19.0003 28C14.0203 28 10.0003 23.98 10.0003 19C10.0003 14.02 14.0203 10 19.0003 10C23.9803 10 28.0003 14.02 28.0003 19C28.0003 23.98 23.9803 28 19.0003 28Z" fill="white"/>
</svg>
